<?xml version="1.0" encoding="utf-8"?>
<!-- Generator: Adobe Illustrator 16.0.0, SVG Export Plug-In . SVG Version: 6.00 Build 0)  -->
<!DOCTYPE svg PUBLIC "-//W3C//DTD SVG 1.1//EN" "http://www.w3.org/Graphics/SVG/1.1/DTD/svg11.dtd">
<svg version="1.1" id="Layer_1" xmlns="http://www.w3.org/2000/svg" xmlns:xlink="http://www.w3.org/1999/xlink" x="0px" y="0px"
	 width="480.404px" height="360.285px" viewBox="0 0 480.404 360.285" enable-background="new 0 0 480.404 360.285"
	 xml:space="preserve">
<path fill="#E1952F" d="M444.629,261.895c56.017-86.229,45.06-192.732-24.513-237.884C385.888,1.77,343.804-1.416,303.242,11.355
	C283.634,4.016,262.386,0,240.204,0c-22.183,0-43.43,4.016-63.039,11.355C136.591-1.416,94.519,1.77,60.266,24.01
	c-69.547,45.152-80.504,151.655-24.49,237.885c40.984,63.134,106.539,93.063,165.924,97.642c6.31,0.491,22.465,0.75,38.503,0.75
	c16.13,0,32.157-0.236,38.501-0.75C338.091,354.958,403.646,325.004,444.629,261.895z M410.331,39.134
	c52.819,34.311,54.668,125.245,4.107,203.14c-4.098,6.273-8.357,12.258-12.854,17.97c12.001-24.114,18.789-51.319,18.789-80.105
	c0-63.271-32.637-118.937-81.989-151.046C364.524,22.944,389.74,25.765,410.331,39.134z M65.978,242.273
	c-50.57-77.896-48.733-168.83,4.099-203.141c20.568-13.369,45.805-16.19,71.946-10.042C92.67,61.2,60.032,116.865,60.032,180.137
	c0,28.786,6.778,55.991,18.765,80.105C74.326,254.529,70.052,248.547,65.978,242.273z M192.875,333.313
	c-56.354-22.03-96.776-82.271-96.776-153.175c0-60.709,29.665-113.61,73.586-141.401c15.627,7.249,31.138,17.466,45.701,30.332
	C207.251,78,199.711,87.762,192.852,98.38c-55.113,84.835-45.373,189.259,21.153,235.624
	C207.157,334.507,200.075,334.248,192.875,333.313z M253.197,321.139c-4.134,2.704-8.487,4.976-12.994,6.849
	c-4.507-1.873-8.874-4.145-13.042-6.849c-52.842-34.313-54.691-125.279-4.121-203.14c5.374-8.263,11.121-16.048,17.162-23.342
	c6.041,7.294,11.788,15.079,17.162,23.342C307.937,195.857,306.063,286.826,253.197,321.139z M266.367,334.003
	c66.526-46.366,76.301-150.789,21.188-235.624c-6.861-10.617-14.436-20.38-22.546-29.312c14.575-12.865,30.084-23.083,45.724-30.332
	c43.91,27.792,73.574,80.692,73.574,141.401c0,70.904-40.445,131.146-96.774,153.177
	C280.332,334.248,273.25,334.507,266.367,334.003z"/>
</svg>
